PathFileType	4	(X/Y/Z)	C:/Users/opensim2020/Desktop/walking_exp_matlab/subject02_walking15_straight_01.trc																																																																																																																												
DataRate	CameraRate	NumFrames	NumMarkers	Units	OrigDataRate	OrigDataStartFrame	OrigNumFrames																																																																																																																								
100	100	7	42	mm	100	449	165																																																																																																																								
Frame#	Time	LFHD			RFHD			LBHD			RBHD			C7			T10			CLAV			STRN			RBAK			LSHO			LUPA			LELB			LFRM			LWRA			LWRB			LFIN			RSHO			RUPA			RELB			RFRM			RWRA			RWRB			RFIN			LASI			RASI			LPSI			RPSI			LTHI			LKNE			LTIB			LANK			LHEE			LTOE			RTHI			RKNE			RTIB			RANK			RHEE			RTOE			*39			*40			*41		
		X1	Y1	Z1	X2	Y2	Z2	X3	Y3	Z3	X4	Y4	Z4	X5	Y5	Z5	X6	Y6	Z6	X7	Y7	Z7	X8	Y8	Z8	X9	Y9	Z9	X10	Y10	Z10	X11	Y11	Z11	X12	Y12	Z12	X13	Y13	Z13	X14	Y14	Z14	X15	Y15	Z15	X16	Y16	Z16	X17	Y17	Z17	X18	Y18	Z18	X19	Y19	Z19	X20	Y20	Z20	X21	Y21	Z21	X22	Y22	Z22	X23	Y23	Z23	X24	Y24	Z24	X25	Y25	Z25	X26	Y26	Z26	X27	Y27	Z27	X28	Y28	Z28	X29	Y29	Z29	X30	Y30	Z30	X31	Y31	Z31	X32	Y32	Z32	X33	Y33	Z33	X34	Y34	Z34	X35	Y35	Z35	X36	Y36	Z36	X37	Y37	Z37	X38	Y38	Z38	X39	Y39	Z39	X40	Y40	Z40	X41	Y41	Z41	X42	Y42	Z42
																																																																																																																															
62	0.61	-562.43988	1741.6825	1512.2688	-566.24683	1723.26758	1655.80713	-691.38739	1666.57837	1500.58386	-708.59961	1646.45728	1641.78503	-747.71973	1525.07922	1571.50635	-800.74609	1249.95691	1570.08423	-610.04199	1457.58948	1556.74475	-557.66858	1285.15674	1561.38354	-807.50177	1348.86462	1630.55249	-682.19092	1501.995	1389.4762	-711.24969	1301.78943	1305.95532	-730.12445	1162.5072	1294.64563	-734.84369	1032.14124	1278.28015	-692.00317	900.49695	1302.75732	-737.71973	909.65948	1271.75391	-727.09937	844.90546	1264.02319	-674.45526	1488.83716	1755.15247	-709.45477	1300.66724	1837.34741	-693.34058	1155.19141	1861.42542	-646.74542	1043.10254	1880.35266	-575.98358	928.02655	1859.94458	-621.51678	915.10565	1890.48352	-572.23468	861.927	1893.95886	-586.25366	987.0752	1423.84424	-582.26886	969.12292	1680.37695	-790.20343	1038.17847	1506.65442	-792.89642	1034.35693	1621.43323	-635.78235	669.17932	1388.17993	-655.13947	469.99142	1435.54675	-711.13904	282.56046	1450.9989	-708.56042	63.90612	1504.90198	-742.40247	37.25298	1559.44653	-555.79382	33.39596	1483.47424	-617.25244	670.05078	1757.36877	-594.86078	472.44064	1740.22742	-735.37476	357.11325	1739.90967	-868.12958	219.31793	1705.01416	-919.99976	192.96683	1642.61487	-798.18024	79.22359	1740.30273	-666.14459	1806.85962	1599.67944	2846.1355	1034.22192	-3356.81812	NaN	NaN	NaN
63	0.62	-549.95062	1742.1687	1512.12146	-553.89758	1723.7113	1655.69141	-678.95581	1667.15662	1500.36133	-696.36487	1647.13965	1641.46533	-735.54034	1525.77209	1570.78076	-789.52844	1250.99341	1568.93738	-598.23975	1458.13562	1556.68335	-546.46765	1285.43115	1560.8855	-796.18927	1349.82312	1629.41174	-669.14429	1503.20154	1389.32434	-692.84497	1302.8407	1305.08716	-707.78302	1162.47461	1293.22156	-708.69501	1031.93787	1277.40503	-661.32379	902.23145	1305.82788	-705.56299	909.07349	1272.73792	-692.09991	844.97009	1265.87097	-663.21436	1489.43848	1754.6853	-699.67761	1301.56763	1836.59583	-685.57532	1155.93652	1860.25293	-641.13751	1043.1731	1879.7793	-572.58026	926.59351	1859.94568	-618.33289	914.68866	1890.31152	-570.14386	860.5108	1894.18396	-576.43823	987.53827	1423.15222	-570.91504	971.76239	1679.14844	-779.32111	1038.75464	1506.19019	-781.87976	1035.40063	1621.07556	-630.59576	668.88226	1388.37927	-651.87982	469.88638	1435.75391	-709.83099	282.96442	1451.39697	-708.33893	64.09556	1505.18872	-742.29883	37.5441	1559.63342	-555.31793	32.9632	1483.54211	-599.89886	672.94495	1757.16626	-571.84503	475.99863	1738.9917	-708.39081	355.68988	1739.60217	-836.03601	212.58104	1705.46191	-887.77142	183.84315	1643.79285	-759.20319	76.56809	1739.97742	-653.77216	1807.48792	1599.37439	2846.06396	1034.2793	-3356.99927	NaN	NaN	NaN
64	0.63	-537.44525	1742.45667	1511.98486	-541.53033	1723.95581	1655.57153	-666.51099	1667.66382	1500.14392	-684.2204	1647.51025	1640.94153	-723.72217	1526.61426	1570.27527	-778.31433	1251.85059	1567.91919	-586.39081	1458.58215	1556.60559	-535.13977	1285.61694	1560.47363	-784.95868	1350.71936	1628.44531	-656.2608	1504.17371	1389.14209	-674.04449	1303.47595	1304.24072	-685.65686	1162.75012	1291.77551	-680.90399	1032.00598	1277.53198	-630.13281	904.41779	1309.23059	-673.65814	909.27234	1273.60352	-656.99518	845.84479	1267.94397	-651.98309	1489.99377	1754.27844	-690.01184	1302.34631	1836.10339	-677.89325	1156.54382	1859.30725	-635.53296	1043.16345	1879.3252	-568.62946	925.32922	1860.31885	-615.13513	914.27991	1890.21057	-568.06403	859.06519	1894.48999	-566.42133	987.82379	1422.36487	-559.81036	973.87909	1677.31567	-768.52875	1039.16968	1506.05945	-770.77283	1036.28931	1621.07788	-624.77417	668.36743	1389.12854	-648.49036	469.76636	1435.93054	-707.99567	283.18552	1451.65454	-708.50952	64.41936	1505.26257	-741.40051	36.98947	1560.15356	-554.72522	32.52196	1483.6438	-582.8338	675.74487	1757.07581	-549.45477	479.40189	1737.8512	-681.31812	353.55667	1739.5249	-803.13416	204.99619	1706.11829	-854.4845	173.78232	1645.0387	-719.30627	73.1065	1739.4353	-641.12549	1807.81409	1599.10706	2845.91382	1034.42407	-3357.04663	NaN	NaN	NaN
65	0.64	-524.75116	1742.4104	1512.00269	-529.09088	1723.93896	1655.54163	-653.98572	1668.07007	1499.8916	-671.96301	1647.85559	1640.66418	-711.62775	1527.14465	1569.72156	-766.9491	1252.54333	1567.02454	-574.51575	1458.81287	1556.51501	-523.8692	1285.57935	1559.94873	-773.38556	1351.22705	1627.40393	-643.53052	1505.14172	1389.00549	-656.25574	1304.49316	1303.60608	-663.15045	1162.98865	1290.45935	-653.59814	1032.39465	1277.18384	-599.36371	907.25787	1312.23169	-641.11499	909.98535	1274.85596	-621.81677	847.24243	1270.30347	-640.69751	1490.12439	1753.78137	-680.44904	1302.95276	1835.5531	-670.34753	1157.13708	1858.41699	-629.94574	1043.0459	1878.96387	-564.99805	923.9826	1860.62292	-611.84845	913.83044	1890.13428	-565.88318	857.79956	1894.88293	-556.48926	988.00311	1421.63184	-547.09772	976.33484	1676.2168	-757.77081	1039.47974	1506.1073	-759.64453	1037.05225	1621.32605	-619.31427	668.30347	1389.55286	-644.92975	469.4924	1436.21802	-706.11224	283.60208	1451.65784	-708.22925	64.60625	1505.45569	-741.85944	37.83492	1560.09424	-554.24402	32.19152	1483.70508	-565.95917	678.42029	1757.047	-527.25031	482.57294	1737.06433	-654.06555	350.67181	1739.58923	-769.44751	196.70126	1706.81335	-819.79987	162.53343	1646.57617	-678.29016	69.63016	1738.8949	-628.32239	1808.19165	1599.19043	2846.00049	1034.2135	-3356.9939	NaN	NaN	NaN
66	0.65	-511.92249	1742.58105	1512.22131	-516.63098	1723.74939	1655.53564	-641.36896	1668.21692	1499.6814	-659.54437	1648.07202	1640.6947	-699.37451	1527.40491	1569.06726	-755.54932	1253.04382	1566.23511	-562.68237	1458.88086	1556.32849	-512.30707	1285.55176	1559.57361	-762.1015	1351.9397	1626.65869	-630.81287	1505.63245	1388.7876	-638.14197	1305.30042	1302.82715	-641.36981	1163.46082	1288.99158	-626.70135	1032.79846	1276.97693	-568.82611	910.05035	1314.95471	-609.08813	911.17566	1276.09436	-586.61646	849.56683	1272.72058	-629.23602	1490.04602	1753.35693	-671.01276	1303.48083	1835.11133	-662.64929	1157.54895	1857.67517	-624.37152	1042.86963	1878.73279	-561.39075	922.4624	1860.83276	-608.59924	913.31848	1890.07532	-563.68372	856.45032	1895.18237	-546.53937	987.79993	1420.57422	-535.10022	977.86639	1674.4624	-747.02887	1039.65295	1506.4198	-748.43396	1037.65869	1621.74573	-612.83496	667.75134	1390.32043	-641.3186	469.20282	1436.49524	-703.8158	283.78055	1451.69141	-707.9361	64.77518	1505.63196	-742.21674	38.45574	1559.98718	-553.87604	31.86185	1483.74316	-549.22467	680.91406	1757.04395	-506.0957	485.42456	1736.05957	-626.87506	347.15045	1739.94336	-735.04901	187.91071	1707.60486	-784.67438	151.08188	1647.65112	-636.56989	65.96326	1738.11511	-615.74402	1808.0929	1598.90649	2846.04663	1034.21631	-3356.95459	NaN	NaN	NaN
67	0.66	-499.33347	1742.06909	1512.03125	-504.15842	1723.31396	1655.53662	-628.77625	1668.21521	1499.48169	-647.21692	1648.03003	1640.41626	-687.17017	1527.64514	1568.52625	-744.24146	1253.46313	1565.72241	-550.70728	1458.7522	1556.21289	-501.0585	1285.2168	1558.875	-750.54877	1352.3302	1625.95325	-618.2309	1506.02856	1388.61487	-621.31531	1306.25781	1302.03137	-620.17303	1164.01697	1287.29846	-599.85706	1033.99121	1276.77393	-537.9837	914.07123	1317.86938	-576.87775	912.97656	1277.5459	-551.79327	852.59747	1275.15735	-617.52979	1489.89893	1753.0542	-661.88586	1303.62146	1834.38013	-655.00824	1157.8125	1857.03821	-618.67834	1042.37903	1878.46985	-557.71649	921.08319	1861.21765	-605.25696	912.76251	1890.08093	-561.43134	855.07007	1895.57849	-536.62366	987.41003	1419.61377	-523.39075	978.72449	1672.4447	-736.32068	1039.67993	1506.92114	-737.0545	1038.12366	1622.35461	-606.39539	667.24146	1390.69006	-637.59357	468.92328	1436.82043	-701.1795	283.80319	1451.86511	-707.61804	64.9957	1505.82532	-741.48987	38.42002	1560.66333	-553.64551	31.62635	1483.73547	-532.61737	683.1875	1757.00269	-485.54181	487.73526	1735.19165	-599.60803	343.03006	1740.25	-699.71295	178.35239	1708.36121	-748.18768	138.90306	1648.97485	-593.99963	62.65931	1737.40198	-602.84436	1808.1449	1599.02319	2846.03247	1034.30969	-3357.05615	NaN	NaN	NaN
68	0.67	-486.55353	1741.62256	1512.13245	-491.66025	1722.67761	1655.52295	-616.20258	1668.15588	1499.27686	-634.84998	1647.75684	1640.20667	-674.95563	1527.65881	1568.03955	-732.7439	1253.5885	1565.35522	-538.76624	1458.39368	1555.92834	-489.5643	1284.73279	1558.17761	-738.94672	1352.49963	1625.36353	-605.64032	1506.19006	1388.41174	-604.42078	1307.09778	1300.84839	-598.56799	1164.63611	1285.91467	-572.64801	1035.27136	1276.94592	-507.45493	918.32172	1320.70959	-544.87128	915.46411	1279.04272	-516.70435	856.20538	1277.95142	-605.87897	1489.60803	1752.69263	-652.3299	1304.00195	1833.99329	-647.25708	1157.94214	1856.50806	-613.03632	1042.05383	1878.38184	-553.90222	919.55426	1861.66028	-601.78119	912.11609	1890.18762	-559.00995	853.71649	1896.0332	-526.94733	986.72491	1418.73267	-510.8591	979.52209	1670.97034	-725.64905	1039.62268	1507.69067	-725.57678	1038.45947	1623.23279	-600.05743	666.75201	1390.98877	-633.84247	468.55869	1437.15503	-699.30621	284.26611	1452.08459	-707.31097	65.23004	1506.05432	-741.25024	38.35485	1560.62878	-553.39093	31.46116	1483.70557	-516.51532	685.0238	1756.9845	-465.8544	489.7818	1734.2561	-572.32495	338.47812	1740.59326	-663.65674	168.58804	1709.24524	-710.60083	126.36214	1650.43066	-550.73077	59.67772	1736.71167	-590.1319	1807.66101	1598.86621	2845.32349	1034.28223	-3360.3606	NaN	NaN	NaN
